<?xml version="1.0" encoding="UTF-8" standalone="no"?>
<!DOCTYPE svg PUBLIC "-//W3C//DTD SVG 1.1//EN" "http://www.w3.org/Graphics/SVG/1.1/DTD/svg11.dtd">
<!-- Generated by graphviz version 2.30.1 (20180420.1509)
 -->
<!-- Title: POS_FUNC Pages: 1 -->
<svg width="1062pt" height="313pt" viewBox="0.00 0.00 1062.00 313.31" xmlns="http://www.w3.org/2000/svg" xmlns:xlink="http://www.w3.org/1999/xlink">
<g id="graph0" class="graph" transform="scale(1 1) rotate(0) translate(4 309.309)">
<title>POS_FUNC</title>
<polygon fill="white" stroke="white" points="-4,5 -4,-309.309 1059,-309.309 1059,5 -4,5"/>
<text text-anchor="middle" x="527" y="-7.8" font-family="Times,serif" font-size="14.00">POS_FUNC</text>
<!-- n14 -->
<g id="node1" class="node"><title>n14</title>
<polygon fill="none" stroke="black" points="1054,-100.853 1054,-115.765 1038.18,-126.309 1015.82,-126.309 1000,-115.765 1000,-100.853 1015.82,-90.3091 1038.18,-90.3091 1054,-100.853"/>
<text text-anchor="middle" x="1027" y="-104.609" font-family="Times,serif" font-size="14.00">f</text>
</g>
<!-- n15 -->
<g id="node2" class="node"><title>n15</title>
<polygon fill="none" stroke="black" points="164,-158.853 164,-173.765 148.184,-184.309 125.816,-184.309 110,-173.765 110,-158.853 125.816,-148.309 148.184,-148.309 164,-158.853"/>
<text text-anchor="middle" x="137" y="-162.609" font-family="Times,serif" font-size="14.00">x</text>
</g>
<!-- c26 -->
<g id="node10" class="node"><title>c26</title>
<polygon fill="none" stroke="black" points="220.5,-147.309 220.5,-185.309 313.5,-185.309 313.5,-147.309 220.5,-147.309"/>
<text text-anchor="middle" x="233.5" y="-162.609" font-family="Times,serif" font-size="14.00">A</text>
<polyline fill="none" stroke="black" points="246.5,-147.309 246.5,-185.309 "/>
<text text-anchor="middle" x="267" y="-170.109" font-family="Times,serif" font-size="14.00">$8</text>
<text text-anchor="middle" x="267" y="-155.109" font-family="Times,serif" font-size="14.00">$not</text>
<polyline fill="none" stroke="black" points="287.5,-147.309 287.5,-185.309 "/>
<text text-anchor="middle" x="300.5" y="-162.609" font-family="Times,serif" font-size="14.00">Y</text>
</g>
<!-- n15&#45;&gt;c26 -->
<g id="edge7" class="edge"><title>n15:e-&gt;c26:p18:w</title>
<path fill="none" stroke="#7570b3" d="M165,-166.309C185.625,-166.309 193.198,-166.309 209.745,-166.309"/>
<polygon fill="#7570b3" stroke="#7570b3" points="210,-169.809 220,-166.309 210,-162.809 210,-169.809"/>
</g>
<!-- c27 -->
<g id="node11" class="node"><title>c27</title>
<polygon fill="none" stroke="black" points="223.5,-259.309 223.5,-305.309 310.5,-305.309 310.5,-259.309 223.5,-259.309"/>
<text text-anchor="middle" x="236.5" y="-290.109" font-family="Times,serif" font-size="14.00">A</text>
<polyline fill="none" stroke="black" points="223.5,-282.309 249.5,-282.309 "/>
<text text-anchor="middle" x="236.5" y="-267.109" font-family="Times,serif" font-size="14.00">B</text>
<polyline fill="none" stroke="black" points="249.5,-259.309 249.5,-305.309 "/>
<text text-anchor="middle" x="267" y="-286.109" font-family="Times,serif" font-size="14.00">$1</text>
<text text-anchor="middle" x="267" y="-271.109" font-family="Times,serif" font-size="14.00">$or</text>
<polyline fill="none" stroke="black" points="284.5,-259.309 284.5,-305.309 "/>
<text text-anchor="middle" x="297.5" y="-278.609" font-family="Times,serif" font-size="14.00">Y</text>
</g>
<!-- n15&#45;&gt;c27 -->
<g id="edge8" class="edge"><title>n15:e-&gt;c27:p18:w</title>
<path fill="none" stroke="#7570b3" d="M165,-166.309C223.504,-166.309 167.429,-279.278 212.059,-292.958"/>
<polygon fill="#7570b3" stroke="#7570b3" points="211.62,-296.431 222,-294.309 212.562,-289.494 211.62,-296.431"/>
</g>
<!-- c29 -->
<g id="node13" class="node"><title>c29</title>
<polygon fill="none" stroke="black" points="352.5,-44.3091 352.5,-90.3091 441.5,-90.3091 441.5,-44.3091 352.5,-44.3091"/>
<text text-anchor="middle" x="365.5" y="-75.1091" font-family="Times,serif" font-size="14.00">A</text>
<polyline fill="none" stroke="black" points="352.5,-67.3091 378.5,-67.3091 "/>
<text text-anchor="middle" x="365.5" y="-52.1091" font-family="Times,serif" font-size="14.00">B</text>
<polyline fill="none" stroke="black" points="378.5,-44.3091 378.5,-90.3091 "/>
<text text-anchor="middle" x="397" y="-71.1091" font-family="Times,serif" font-size="14.00">$14</text>
<text text-anchor="middle" x="397" y="-56.1091" font-family="Times,serif" font-size="14.00">$or</text>
<polyline fill="none" stroke="black" points="415.5,-44.3091 415.5,-90.3091 "/>
<text text-anchor="middle" x="428.5" y="-63.6091" font-family="Times,serif" font-size="14.00">Y</text>
</g>
<!-- n15&#45;&gt;c29 -->
<g id="edge9" class="edge"><title>n15:e-&gt;c29:p18:w</title>
<path fill="none" stroke="#7570b3" d="M165,-166.309C192.634,-166.309 195.129,-149.354 220,-137.309 245.855,-124.787 305.791,-87.6384 340.641,-80.5022"/>
<polygon fill="#7570b3" stroke="#7570b3" points="341.466,-83.9304 351,-79.3091 340.665,-76.9764 341.466,-83.9304"/>
</g>
<!-- n16 -->
<g id="node3" class="node"><title>n16</title>
<polygon fill="none" stroke="black" points="54,-67.8532 54,-82.7649 38.1838,-93.3091 15.8162,-93.3091 3.55271e-15,-82.7649 0,-67.8532 15.8162,-57.3091 38.1838,-57.3091 54,-67.8532"/>
<text text-anchor="middle" x="27" y="-71.6091" font-family="Times,serif" font-size="14.00">y</text>
</g>
<!-- c24 -->
<g id="node8" class="node"><title>c24</title>
<polygon fill="none" stroke="black" points="90.5,-56.3091 90.5,-94.3091 183.5,-94.3091 183.5,-56.3091 90.5,-56.3091"/>
<text text-anchor="middle" x="103.5" y="-71.6091" font-family="Times,serif" font-size="14.00">A</text>
<polyline fill="none" stroke="black" points="116.5,-56.3091 116.5,-94.3091 "/>
<text text-anchor="middle" x="137" y="-79.1091" font-family="Times,serif" font-size="14.00">$13</text>
<text text-anchor="middle" x="137" y="-64.1091" font-family="Times,serif" font-size="14.00">$not</text>
<polyline fill="none" stroke="black" points="157.5,-56.3091 157.5,-94.3091 "/>
<text text-anchor="middle" x="170.5" y="-71.6091" font-family="Times,serif" font-size="14.00">Y</text>
</g>
<!-- n16&#45;&gt;c24 -->
<g id="edge10" class="edge"><title>n16:e-&gt;c24:p18:w</title>
<path fill="none" stroke="#d95f02" d="M54,-75.3091C66,-75.3091 71.25,-75.3091 79.875,-75.3091"/>
<polygon fill="#d95f02" stroke="#d95f02" points="80,-78.8092 90,-75.3091 80,-71.8092 80,-78.8092"/>
</g>
<!-- n16&#45;&gt;c27 -->
<g id="edge11" class="edge"><title>n16:e-&gt;c27:p19:w</title>
<path fill="none" stroke="#d95f02" d="M54,-75.3091C108.831,-75.3091 55.9758,-150.312 90,-193.309 130.005,-243.865 151.801,-267.822 212,-270.125"/>
<polygon fill="#d95f02" stroke="#d95f02" points="211.937,-273.624 222,-270.309 212.066,-266.625 211.937,-273.624"/>
</g>
<!-- c34 -->
<g id="node18" class="node"><title>c34</title>
<polygon fill="none" stroke="black" points="480.5,-117.309 480.5,-163.309 567.5,-163.309 567.5,-117.309 480.5,-117.309"/>
<text text-anchor="middle" x="493.5" y="-148.109" font-family="Times,serif" font-size="14.00">A</text>
<polyline fill="none" stroke="black" points="480.5,-140.309 506.5,-140.309 "/>
<text text-anchor="middle" x="493.5" y="-125.109" font-family="Times,serif" font-size="14.00">B</text>
<polyline fill="none" stroke="black" points="506.5,-117.309 506.5,-163.309 "/>
<text text-anchor="middle" x="524" y="-144.109" font-family="Times,serif" font-size="14.00">$9</text>
<text text-anchor="middle" x="524" y="-129.109" font-family="Times,serif" font-size="14.00">$or</text>
<polyline fill="none" stroke="black" points="541.5,-117.309 541.5,-163.309 "/>
<text text-anchor="middle" x="554.5" y="-136.609" font-family="Times,serif" font-size="14.00">Y</text>
</g>
<!-- n16&#45;&gt;c34 -->
<g id="edge12" class="edge"><title>n16:e-&gt;c34:p19:w</title>
<path fill="none" stroke="#d95f02" d="M54,-75.3091C74.5456,-75.3091 70.7868,-53.5875 90,-46.3091 198.177,-5.32905 234.352,-36.9765 350,-34.3091 391.767,-33.3457 409.579,-10.6326 444,-34.3091 477.547,-57.3847 442.791,-116.324 470.004,-126.728"/>
<polygon fill="#d95f02" stroke="#d95f02" points="469.576,-130.204 480,-128.309 470.67,-123.29 469.576,-130.204"/>
</g>
<!-- n17 -->
<g id="node4" class="node"><title>n17</title>
<polygon fill="none" stroke="black" points="294,-214.853 294,-229.765 278.184,-240.309 255.816,-240.309 240,-229.765 240,-214.853 255.816,-204.309 278.184,-204.309 294,-214.853"/>
<text text-anchor="middle" x="267" y="-218.609" font-family="Times,serif" font-size="14.00">z</text>
</g>
<!-- c25 -->
<g id="node9" class="node"><title>c25</title>
<polygon fill="none" stroke="black" points="350.5,-109.309 350.5,-147.309 443.5,-147.309 443.5,-109.309 350.5,-109.309"/>
<text text-anchor="middle" x="363.5" y="-124.609" font-family="Times,serif" font-size="14.00">A</text>
<polyline fill="none" stroke="black" points="376.5,-109.309 376.5,-147.309 "/>
<text text-anchor="middle" x="397" y="-132.109" font-family="Times,serif" font-size="14.00">$15</text>
<text text-anchor="middle" x="397" y="-117.109" font-family="Times,serif" font-size="14.00">$not</text>
<polyline fill="none" stroke="black" points="417.5,-109.309 417.5,-147.309 "/>
<text text-anchor="middle" x="430.5" y="-124.609" font-family="Times,serif" font-size="14.00">Y</text>
</g>
<!-- n17&#45;&gt;c25 -->
<g id="edge13" class="edge"><title>n17:e-&gt;c25:p18:w</title>
<path fill="none" stroke="#1b9e77" d="M295,-222.309C339.433,-222.309 307.848,-143.098 339.81,-130.103"/>
<polygon fill="#1b9e77" stroke="#1b9e77" points="340.758,-133.49 350,-128.309 339.545,-126.596 340.758,-133.49"/>
</g>
<!-- c31 -->
<g id="node15" class="node"><title>c31</title>
<polygon fill="none" stroke="black" points="353.5,-252.309 353.5,-298.309 440.5,-298.309 440.5,-252.309 353.5,-252.309"/>
<text text-anchor="middle" x="366.5" y="-283.109" font-family="Times,serif" font-size="14.00">A</text>
<polyline fill="none" stroke="black" points="353.5,-275.309 379.5,-275.309 "/>
<text text-anchor="middle" x="366.5" y="-260.109" font-family="Times,serif" font-size="14.00">B</text>
<polyline fill="none" stroke="black" points="379.5,-252.309 379.5,-298.309 "/>
<text text-anchor="middle" x="397" y="-279.109" font-family="Times,serif" font-size="14.00">$2</text>
<text text-anchor="middle" x="397" y="-264.109" font-family="Times,serif" font-size="14.00">$or</text>
<polyline fill="none" stroke="black" points="414.5,-252.309 414.5,-298.309 "/>
<text text-anchor="middle" x="427.5" y="-271.609" font-family="Times,serif" font-size="14.00">Y</text>
</g>
<!-- n17&#45;&gt;c31 -->
<g id="edge14" class="edge"><title>n17:e-&gt;c31:p19:w</title>
<path fill="none" stroke="#1b9e77" d="M295,-222.309C322.305,-222.309 321.575,-253.7 341.871,-261.547"/>
<polygon fill="#1b9e77" stroke="#1b9e77" points="341.548,-265.044 352,-263.309 342.748,-258.147 341.548,-265.044"/>
</g>
<!-- c32 -->
<g id="node16" class="node"><title>c32</title>
<polygon fill="none" stroke="black" points="353.5,-187.309 353.5,-233.309 440.5,-233.309 440.5,-187.309 353.5,-187.309"/>
<text text-anchor="middle" x="366.5" y="-218.109" font-family="Times,serif" font-size="14.00">A</text>
<polyline fill="none" stroke="black" points="353.5,-210.309 379.5,-210.309 "/>
<text text-anchor="middle" x="366.5" y="-195.109" font-family="Times,serif" font-size="14.00">B</text>
<polyline fill="none" stroke="black" points="379.5,-187.309 379.5,-233.309 "/>
<text text-anchor="middle" x="397" y="-214.109" font-family="Times,serif" font-size="14.00">$4</text>
<text text-anchor="middle" x="397" y="-199.109" font-family="Times,serif" font-size="14.00">$or</text>
<polyline fill="none" stroke="black" points="414.5,-187.309 414.5,-233.309 "/>
<text text-anchor="middle" x="427.5" y="-206.609" font-family="Times,serif" font-size="14.00">Y</text>
</g>
<!-- n17&#45;&gt;c32 -->
<g id="edge15" class="edge"><title>n17:e-&gt;c32:p18:w</title>
<path fill="none" stroke="#1b9e77" d="M295,-222.309C316.573,-222.309 324.368,-222.309 341.85,-222.309"/>
<polygon fill="#1b9e77" stroke="#1b9e77" points="342,-225.809 352,-222.309 342,-218.809 342,-225.809"/>
</g>
<!-- c21 -->
<g id="node5" class="node"><title>c21</title>
<polygon fill="none" stroke="black" points="736.5,-117.309 736.5,-163.309 831.5,-163.309 831.5,-117.309 736.5,-117.309"/>
<text text-anchor="middle" x="749.5" y="-148.109" font-family="Times,serif" font-size="14.00">A</text>
<polyline fill="none" stroke="black" points="736.5,-140.309 762.5,-140.309 "/>
<text text-anchor="middle" x="749.5" y="-125.109" font-family="Times,serif" font-size="14.00">B</text>
<polyline fill="none" stroke="black" points="762.5,-117.309 762.5,-163.309 "/>
<text text-anchor="middle" x="784" y="-144.109" font-family="Times,serif" font-size="14.00">$12</text>
<text text-anchor="middle" x="784" y="-129.109" font-family="Times,serif" font-size="14.00">$and</text>
<polyline fill="none" stroke="black" points="805.5,-117.309 805.5,-163.309 "/>
<text text-anchor="middle" x="818.5" y="-136.609" font-family="Times,serif" font-size="14.00">Y</text>
</g>
<!-- c22 -->
<g id="node6" class="node"><title>c22</title>
<polygon fill="none" stroke="black" points="868.5,-85.3091 868.5,-131.309 963.5,-131.309 963.5,-85.3091 868.5,-85.3091"/>
<text text-anchor="middle" x="881.5" y="-116.109" font-family="Times,serif" font-size="14.00">A</text>
<polyline fill="none" stroke="black" points="868.5,-108.309 894.5,-108.309 "/>
<text text-anchor="middle" x="881.5" y="-93.1091" font-family="Times,serif" font-size="14.00">B</text>
<polyline fill="none" stroke="black" points="894.5,-85.3091 894.5,-131.309 "/>
<text text-anchor="middle" x="916" y="-112.109" font-family="Times,serif" font-size="14.00">$17</text>
<text text-anchor="middle" x="916" y="-97.1091" font-family="Times,serif" font-size="14.00">$and</text>
<polyline fill="none" stroke="black" points="937.5,-85.3091 937.5,-131.309 "/>
<text text-anchor="middle" x="950.5" y="-104.609" font-family="Times,serif" font-size="14.00">Y</text>
</g>
<!-- c21&#45;&gt;c22 -->
<g id="edge1" class="edge"><title>c21:p20:e-&gt;c22:p18:w</title>
<path fill="none" stroke="#66a61e" d="M832,-140.309C846.156,-140.309 849.001,-128.345 858.032,-122.924"/>
<polygon fill="#66a61e" stroke="#66a61e" points="859.215,-126.232 868,-120.309 857.439,-119.461 859.215,-126.232"/>
</g>
<!-- c22&#45;&gt;n14 -->
<g id="edge6" class="edge"><title>c22:p20:e-&gt;n14:w</title>
<path fill="none" stroke="#e7298a" d="M964,-108.309C976,-108.309 981.25,-108.309 989.875,-108.309"/>
<polygon fill="#e7298a" stroke="#e7298a" points="990,-111.809 1000,-108.309 990,-104.809 990,-111.809"/>
</g>
<!-- c23 -->
<g id="node7" class="node"><title>c23</title>
<polygon fill="none" stroke="black" points="604.5,-194.309 604.5,-240.309 699.5,-240.309 699.5,-194.309 604.5,-194.309"/>
<text text-anchor="middle" x="617.5" y="-225.109" font-family="Times,serif" font-size="14.00">A</text>
<polyline fill="none" stroke="black" points="604.5,-217.309 630.5,-217.309 "/>
<text text-anchor="middle" x="617.5" y="-202.109" font-family="Times,serif" font-size="14.00">B</text>
<polyline fill="none" stroke="black" points="630.5,-194.309 630.5,-240.309 "/>
<text text-anchor="middle" x="652" y="-221.109" font-family="Times,serif" font-size="14.00">$7</text>
<text text-anchor="middle" x="652" y="-206.109" font-family="Times,serif" font-size="14.00">$and</text>
<polyline fill="none" stroke="black" points="673.5,-194.309 673.5,-240.309 "/>
<text text-anchor="middle" x="686.5" y="-213.609" font-family="Times,serif" font-size="14.00">Y</text>
</g>
<!-- c23&#45;&gt;c21 -->
<g id="edge16" class="edge"><title>c23:p20:e-&gt;c21:p18:w</title>
<path fill="none" stroke="#1b9e77" d="M700,-217.309C728.896,-217.309 709.503,-167.543 726.326,-155.102"/>
<polygon fill="#1b9e77" stroke="#1b9e77" points="727.363,-158.446 736,-152.309 725.422,-151.72 727.363,-158.446"/>
</g>
<!-- n4 -->
<g id="node20" class="node"><title>n4</title>
<ellipse fill="black" stroke="black" cx="267" cy="-75.3091" rx="1.8" ry="1.8"/>
</g>
<!-- c24&#45;&gt;n4 -->
<g id="edge20" class="edge"><title>c24:p20:e-&gt;n4:w</title>
<path fill="none" stroke="#e6ab02" d="M184,-75.3091C215.944,-75.3091 226.364,-75.3091 253.936,-75.3091"/>
<polygon fill="#e6ab02" stroke="#e6ab02" points="254,-78.8092 264,-75.3091 254,-71.8092 254,-78.8092"/>
</g>
<!-- n3 -->
<g id="node19" class="node"><title>n3</title>
<ellipse fill="black" stroke="black" cx="524" cy="-97.3091" rx="1.8" ry="1.8"/>
</g>
<!-- c25&#45;&gt;n3 -->
<g id="edge17" class="edge"><title>c25:p20:e-&gt;n3:w</title>
<path fill="none" stroke="#e6ab02" d="M444,-128.309C462.523,-128.309 462.823,-114.243 480,-107.309 493.724,-101.769 499.639,-98.7458 510.739,-97.7167"/>
<polygon fill="#e6ab02" stroke="#e6ab02" points="511.147,-101.203 521,-97.3091 510.869,-94.2089 511.147,-101.203"/>
</g>
<!-- n5 -->
<g id="node21" class="node"><title>n5</title>
<ellipse fill="black" stroke="black" cx="397" cy="-167.309" rx="1.8" ry="1.8"/>
</g>
<!-- c26&#45;&gt;n5 -->
<g id="edge23" class="edge"><title>c26:p20:e-&gt;n5:w</title>
<path fill="none" stroke="#d95f02" d="M314,-166.309C345.947,-166.309 356.362,-167.116 383.935,-167.28"/>
<polygon fill="#d95f02" stroke="#d95f02" points="383.99,-170.78 394,-167.309 384.01,-163.78 383.99,-170.78"/>
</g>
<!-- c27&#45;&gt;c31 -->
<g id="edge29" class="edge"><title>c27:p20:e-&gt;c31:p18:w</title>
<path fill="none" stroke="#1b9e77" d="M312,-282.309C325.997,-282.309 331.603,-285.361 341.928,-286.696"/>
<polygon fill="#1b9e77" stroke="#1b9e77" points="341.806,-290.195 352,-287.309 342.231,-283.208 341.806,-290.195"/>
</g>
<!-- c28 -->
<g id="node12" class="node"><title>c28</title>
<polygon fill="none" stroke="black" points="607.5,-105.309 607.5,-151.309 696.5,-151.309 696.5,-105.309 607.5,-105.309"/>
<text text-anchor="middle" x="620.5" y="-136.109" font-family="Times,serif" font-size="14.00">A</text>
<polyline fill="none" stroke="black" points="607.5,-128.309 633.5,-128.309 "/>
<text text-anchor="middle" x="620.5" y="-113.109" font-family="Times,serif" font-size="14.00">B</text>
<polyline fill="none" stroke="black" points="633.5,-105.309 633.5,-151.309 "/>
<text text-anchor="middle" x="652" y="-132.109" font-family="Times,serif" font-size="14.00">$11</text>
<text text-anchor="middle" x="652" y="-117.109" font-family="Times,serif" font-size="14.00">$or</text>
<polyline fill="none" stroke="black" points="670.5,-105.309 670.5,-151.309 "/>
<text text-anchor="middle" x="683.5" y="-124.609" font-family="Times,serif" font-size="14.00">Y</text>
</g>
<!-- c28&#45;&gt;c21 -->
<g id="edge26" class="edge"><title>c28:p20:e-&gt;c21:p19:w</title>
<path fill="none" stroke="#d95f02" d="M698,-128.309C710.931,-128.309 716.436,-128.309 725.886,-128.309"/>
<polygon fill="#d95f02" stroke="#d95f02" points="726,-131.809 736,-128.309 726,-124.809 726,-131.809"/>
</g>
<!-- c30 -->
<g id="node14" class="node"><title>c30</title>
<polygon fill="none" stroke="black" points="607.5,-40.3091 607.5,-86.3091 696.5,-86.3091 696.5,-40.3091 607.5,-40.3091"/>
<text text-anchor="middle" x="620.5" y="-71.1091" font-family="Times,serif" font-size="14.00">A</text>
<polyline fill="none" stroke="black" points="607.5,-63.3091 633.5,-63.3091 "/>
<text text-anchor="middle" x="620.5" y="-48.1091" font-family="Times,serif" font-size="14.00">B</text>
<polyline fill="none" stroke="black" points="633.5,-40.3091 633.5,-86.3091 "/>
<text text-anchor="middle" x="652" y="-67.1091" font-family="Times,serif" font-size="14.00">$16</text>
<text text-anchor="middle" x="652" y="-52.1091" font-family="Times,serif" font-size="14.00">$or</text>
<polyline fill="none" stroke="black" points="670.5,-40.3091 670.5,-86.3091 "/>
<text text-anchor="middle" x="683.5" y="-59.6091" font-family="Times,serif" font-size="14.00">Y</text>
</g>
<!-- c29&#45;&gt;c30 -->
<g id="edge27" class="edge"><title>c29:p20:e-&gt;c30:p18:w</title>
<path fill="none" stroke="#d95f02" d="M443,-67.3091C511.99,-67.3091 531.587,-74.5469 595.753,-75.2537"/>
<polygon fill="#d95f02" stroke="#d95f02" points="595.981,-78.7549 606,-75.3091 596.019,-71.755 595.981,-78.7549"/>
</g>
<!-- c30&#45;&gt;c22 -->
<g id="edge28" class="edge"><title>c30:p20:e-&gt;c22:p19:w</title>
<path fill="none" stroke="#1b9e77" d="M698,-63.3091C771.508,-63.3091 789.468,-93.4108 857.985,-96.1153"/>
<polygon fill="#1b9e77" stroke="#1b9e77" points="857.934,-99.6149 868,-96.3091 858.07,-92.6162 857.934,-99.6149"/>
</g>
<!-- c31&#45;&gt;c23 -->
<g id="edge2" class="edge"><title>c31:p20:e-&gt;c23:p18:w</title>
<path fill="none" stroke="#1b9e77" d="M442,-275.309C458.592,-275.309 558.423,-239.141 593.873,-230.946"/>
<polygon fill="#1b9e77" stroke="#1b9e77" points="594.687,-234.36 604,-229.309 593.57,-227.45 594.687,-234.36"/>
</g>
<!-- c33 -->
<g id="node17" class="node"><title>c33</title>
<polygon fill="none" stroke="black" points="480.5,-182.309 480.5,-228.309 567.5,-228.309 567.5,-182.309 480.5,-182.309"/>
<text text-anchor="middle" x="493.5" y="-213.109" font-family="Times,serif" font-size="14.00">A</text>
<polyline fill="none" stroke="black" points="480.5,-205.309 506.5,-205.309 "/>
<text text-anchor="middle" x="493.5" y="-190.109" font-family="Times,serif" font-size="14.00">B</text>
<polyline fill="none" stroke="black" points="506.5,-182.309 506.5,-228.309 "/>
<text text-anchor="middle" x="524" y="-209.109" font-family="Times,serif" font-size="14.00">$6</text>
<text text-anchor="middle" x="524" y="-194.109" font-family="Times,serif" font-size="14.00">$or</text>
<polyline fill="none" stroke="black" points="541.5,-182.309 541.5,-228.309 "/>
<text text-anchor="middle" x="554.5" y="-201.609" font-family="Times,serif" font-size="14.00">Y</text>
</g>
<!-- c32&#45;&gt;c33 -->
<g id="edge3" class="edge"><title>c32:p20:e-&gt;c33:p18:w</title>
<path fill="none" stroke="#1b9e77" d="M442,-210.309C455.148,-210.309 460.372,-214.412 469.805,-216.336"/>
<polygon fill="#1b9e77" stroke="#1b9e77" points="469.713,-219.843 480,-217.309 470.378,-212.874 469.713,-219.843"/>
</g>
<!-- c33&#45;&gt;c23 -->
<g id="edge4" class="edge"><title>c33:p20:e-&gt;c23:p19:w</title>
<path fill="none" stroke="#7570b3" d="M568,-205.309C580,-205.309 585.25,-205.309 593.875,-205.309"/>
<polygon fill="#7570b3" stroke="#7570b3" points="594,-208.809 604,-205.309 594,-201.809 594,-208.809"/>
</g>
<!-- c34&#45;&gt;c28 -->
<g id="edge5" class="edge"><title>c34:p20:e-&gt;c28:p18:w</title>
<path fill="none" stroke="#e7298a" d="M568,-140.309C580.931,-140.309 586.436,-140.309 595.886,-140.309"/>
<polygon fill="#e7298a" stroke="#e7298a" points="596,-143.809 606,-140.309 596,-136.809 596,-143.809"/>
</g>
<!-- n3&#45;&gt;c28 -->
<g id="edge18" class="edge"><title>n3:e-&gt;c28:p19:w</title>
<path fill="none" stroke="#e6ab02" d="M527,-97.3091C542.235,-97.3091 575.148,-110.835 595.907,-115.062"/>
<polygon fill="#e6ab02" stroke="#e6ab02" points="595.646,-118.557 606,-116.309 596.504,-111.61 595.646,-118.557"/>
</g>
<!-- n3&#45;&gt;c30 -->
<g id="edge19" class="edge"><title>n3:e-&gt;c30:p19:w</title>
<path fill="none" stroke="#e6ab02" d="M527,-97.3091C546.561,-97.3091 551.027,-91.0314 568,-81.3091 583.171,-72.6193 584.57,-58.2457 596.103,-53.1611"/>
<polygon fill="#e6ab02" stroke="#e6ab02" points="596.814,-56.5888 606,-51.3091 595.527,-49.7083 596.814,-56.5888"/>
</g>
<!-- n4&#45;&gt;c29 -->
<g id="edge21" class="edge"><title>n4:e-&gt;c29:p19:w</title>
<path fill="none" stroke="#e6ab02" d="M270,-75.3091C303.46,-75.3091 312.295,-59.0246 340.945,-55.844"/>
<polygon fill="#e6ab02" stroke="#e6ab02" points="341.2,-59.3355 351,-55.3091 340.828,-52.3454 341.2,-59.3355"/>
</g>
<!-- n4&#45;&gt;c32 -->
<g id="edge22" class="edge"><title>n4:e-&gt;c32:p19:w</title>
<path fill="none" stroke="#e6ab02" d="M270,-75.3091C303.789,-75.3091 295.281,-109.179 314,-137.309 329.483,-160.577 322.51,-189.829 341.922,-196.779"/>
<polygon fill="#e6ab02" stroke="#e6ab02" points="341.588,-200.268 352,-198.309 342.639,-193.347 341.588,-200.268"/>
</g>
<!-- n5&#45;&gt;c33 -->
<g id="edge24" class="edge"><title>n5:e-&gt;c33:p19:w</title>
<path fill="none" stroke="#d95f02" d="M400,-167.309C420.054,-167.309 424.969,-170.984 444,-177.309 456.721,-181.537 460.802,-188.67 469.874,-191.781"/>
<polygon fill="#d95f02" stroke="#d95f02" points="469.59,-195.278 480,-193.309 470.634,-188.356 469.59,-195.278"/>
</g>
<!-- n5&#45;&gt;c34 -->
<g id="edge25" class="edge"><title>n5:e-&gt;c34:p18:w</title>
<path fill="none" stroke="#d95f02" d="M400,-167.309C432.501,-167.309 441.977,-155.201 469.801,-152.742"/>
<polygon fill="#d95f02" stroke="#d95f02" points="470.157,-156.23 480,-152.309 469.861,-149.236 470.157,-156.23"/>
</g>
</g>
</svg>